<svg width="333" height="220" viewBox="0 0 333 220" fill="none" xmlns="http://www.w3.org/2000/svg">
<path d="M310.732 139.091C196.781 197.975 137.897 187.07 151.528 182.709C106.394 182.709 126.993 166.638 126.993 145.327C126.993 124.017 187.882 106.741 233.016 106.741C278.149 106.741 310.732 117.78 310.732 139.091Z" fill="#D02A2A"/>
<path d="M307.623 139.936C307.623 147.743 296.907 177.005 290.633 178.55C283.354 180.342 302.217 156.411 281.366 139.936C281.366 139.936 287.717 132.728 295.524 132.728C301.747 132.728 307.623 139.936 307.623 139.936Z" fill="white" stroke="#D02A2A" stroke-width="2"/>
<path d="M241.861 157.516C241.861 165.323 231.144 194.585 224.871 196.129C217.592 197.921 236.455 173.991 215.603 157.516C215.603 157.516 221.954 150.308 229.762 150.308C235.984 150.308 241.861 157.516 241.861 157.516Z" fill="white" stroke="#D02A2A" stroke-width="2"/>
<path d="M246.511 170.225C247.584 174.187 251.96 176.237 255.691 174.524L257.232 173.816C261.927 172.154 264.535 167.143 263.203 162.344L261.331 155.602C260.111 151.212 255.267 148.939 251.111 150.809L250.856 150.924C250.065 151.28 249.207 151.464 248.34 151.464C244.059 151.464 241.095 155.736 242.594 159.746L246.511 170.225Z" fill="white" stroke="#D02A2A" stroke-width="2"/>
<path d="M201.818 172.191C202.403 176.08 206.342 178.511 210.081 177.292L211.625 176.788C216.276 175.723 219.309 171.24 218.568 166.527L217.528 159.906C216.851 155.594 212.491 152.898 208.33 154.22L208.075 154.302C207.283 154.553 206.446 154.634 205.621 154.539C201.548 154.068 198.257 157.808 199.242 161.788L201.818 172.191Z" fill="white" stroke="#D02A2A"/>
<path d="M181.762 172.504C181.916 176.434 185.564 179.284 189.414 178.482L191.004 178.151C195.744 177.604 199.252 173.482 199.034 168.716L198.728 162.021C198.528 157.66 194.491 154.502 190.211 155.358L189.948 155.411C189.133 155.574 188.293 155.563 187.482 155.377C183.486 154.461 179.804 157.817 180.346 161.881L181.762 172.504Z" fill="white" stroke="#D02A2A"/>
<path d="M313.768 141.839C315 145.191 313.565 148.938 310.408 150.609L309.178 151.26C304.746 153.011 299.713 151.045 297.642 146.752L295.549 142.413C293.414 137.989 295.353 132.654 299.805 130.578C300.4 130.301 301.03 130.092 301.673 129.961C305.646 129.152 309.627 131.314 311.111 135.087L313.768 141.839Z" fill="white" stroke="#D02A2A" stroke-width="2"/>
<path d="M298.489 150.477C300.094 153.728 298.395 157.641 294.924 158.687L293.491 159.118C289.412 160.761 284.757 158.967 282.835 155.012L280.486 150.177C278.544 146.178 280.625 141.388 284.871 140.073C285.254 139.955 285.627 139.804 285.985 139.623C289.836 137.679 294.521 139.538 295.992 143.593L298.489 150.477Z" fill="white" stroke="#D02A2A" stroke-width="2"/>
<path d="M282.73 156.657C284.572 160.388 282.621 164.881 278.637 166.081L276.991 166.577C272.309 168.463 266.965 166.404 264.759 161.863L262.063 156.312C259.833 151.722 262.222 146.223 267.096 144.714C267.536 144.578 267.964 144.405 268.375 144.197C272.796 141.966 278.174 144.099 279.863 148.755L282.73 156.657Z" fill="white" stroke="#D02A2A" stroke-width="2"/>
<path d="M254.426 149.501C228.292 165.826 205.463 141.331 172.142 175.288C146.008 187.171 118.189 172.911 118.189 153.217C101.053 124.729 122.654 109.643 168.846 117.558C196.823 117.558 254.426 129.807 254.426 149.501Z" fill="#FA3A3A"/>
<path d="M137.621 115.677C122.137 136.925 122.684 136.528 104.393 138.938C91.9982 136.964 53.205 123.041 43.222 100.641C70.8859 112.307 94.3589 102.608 106.754 104.582C119.149 106.557 121.589 106.945 137.621 115.677Z" fill="#FA3A3A"/>
<path d="M133.863 167.125C125.465 141.248 125.876 141.815 108.661 133.564C95.8344 131.521 57.3234 124.068 36.0897 167.125C60.2634 145.629 65.3432 176.717 99.7907 169.802C112.204 167.125 115.288 170.559 133.863 167.125Z" fill="#FA3A3A"/>
<path d="M172.524 174.941C153.632 155.365 154.25 155.694 135.16 155.825C122.736 159.611 87.7173 163.639 87.5076 211.646C101.554 187.799 115.143 213.6 143.073 192.284C153.057 184.436 157.334 186.171 172.524 174.941Z" fill="#FA3A3A"/>
<path d="M136.2 162.867C142.955 160.268 146.729 158.296 144.577 150.002C139.244 135.722 113.274 122.103 88.6834 122.378C105.04 126.065 106.165 127.421 117.172 150.002C122.487 160.908 131.996 164.484 136.2 162.867Z" fill="#FFBE16"/>
<path d="M92.2595 149.186C92.2595 149.186 99.4463 141.346 95.8529 136.445C92.2595 131.545 70.8346 138.761 51.0989 153.432C67.7592 149.186 81.1527 167.806 107.286 162.579L92.2595 149.186Z" fill="#FFBE16"/>
<path d="M128.984 181.699C128.984 181.699 109.057 179.739 125.064 166.672C141.071 153.605 95.9904 175.492 90.1103 200.319C101.544 185.946 134.864 200.319 152.505 176.799L128.984 181.699Z" fill="#FFBE16"/>
<path d="M80.62 119.669L88.8036 129.353C88.8036 129.353 60.0565 122.166 51.6651 107.163C62.9738 113.621 68.2233 101.913 84.2302 114L80.62 119.669Z" fill="#FFBE16"/>
<path d="M66.9463 112.505C68.3374 113.206 70.134 113.941 71.7062 114.211C72.6369 114.371 73.573 114.384 74.3065 114.05C74.51 113.957 74.6977 113.837 74.8634 113.688C74.8689 115.197 74.3809 117.323 72.5415 119.39C71.4889 118.621 70.0883 117.432 68.9422 116.101C68.3027 115.358 67.7542 114.584 67.3873 113.826C67.1645 113.366 67.0144 112.924 66.9463 112.505Z" stroke="#A317B1"/>
<path d="M71.7367 115.592C71.0074 115.644 70.4185 115.498 69.763 115.232C69.5359 115.14 69.4976 114.914 69.3378 114.764C68.6949 114.159 69.4988 115.336 69.6921 115.475C70.1513 115.807 70.5233 116.41 70.8679 116.834C71.1428 117.172 71.9818 117.954 72.4304 117.74C72.9581 117.489 73.5497 116.626 73.7023 116.06C73.9025 115.318 73.3106 115.33 72.873 115.682C72.6987 115.822 72.2149 116.926 72.0069 116.613C71.6816 116.123 71.0199 115.194 72.1816 115.584" stroke="#A317B1" stroke-linecap="round" stroke-linejoin="round"/>
<path d="M72.2741 145.278C72.2866 145.275 72.2985 145.272 72.3095 145.27L72.3378 145.327L72.581 145.476C74.1557 146.444 76.4653 148.009 78.2787 149.555C78.8245 150.02 79.3102 150.47 79.7122 150.891C77.7386 150.032 75.4383 149.086 73.3222 148.327C71.8419 147.796 70.4228 147.346 69.2568 147.082C69.7736 146.682 70.3075 146.298 70.8132 145.982C71.4405 145.59 71.942 145.355 72.2741 145.278Z" stroke="#A317B1" stroke-width="2"/>
<path d="M87.714 156.592C85.8915 147.757 82.0626 143.715 79.1764 142.312L84.8618 141.072C87.0924 143.614 87.979 147.026 88.1512 150.338C88.2694 152.613 88.0485 154.811 87.714 156.592Z" fill="#A317B1" stroke="#A317B1"/>
<path d="M73.2571 147.154C72.8554 146.981 72.3762 146.813 72.0403 146.52C71.6833 146.209 72.3046 146.377 72.5887 146.383C72.7755 146.388 73.7083 146.422 73.7198 146.709C73.7261 146.867 73.7279 146.923 73.5656 146.923" stroke="#A317B1" stroke-linecap="round" stroke-linejoin="round"/>
<path d="M106.472 185.625C106.795 185.296 107.074 185.073 107.282 184.959L107.54 184.988C108.638 185.114 110.146 185.327 111.591 185.604C110.596 185.611 109.586 185.629 108.63 185.663C107.811 185.693 107.022 185.735 106.31 185.794C106.364 185.736 106.418 185.68 106.472 185.625ZM107.406 184.9C107.425 184.893 107.434 184.892 107.433 184.893C107.433 184.893 107.423 184.897 107.406 184.9Z" stroke="#A317B1" stroke-width="2"/>
<path d="M111.118 176.601L115.296 174.123C117.456 176.187 119.118 178.765 120.28 181.27C121.194 183.238 121.789 185.141 122.077 186.689C118.549 183.36 115.665 181.625 113.286 180.66C111.321 179.863 109.691 179.593 108.409 179.382C108.353 179.372 108.298 179.363 108.243 179.354L111.118 176.601Z" fill="#A317B1" stroke="#A317B1"/>
<path d="M124.221 141.427C124.117 141.393 124.006 141.356 123.889 141.315C123.741 141.264 123.586 141.21 123.425 141.153C123.04 141.017 122.628 140.873 122.241 140.752C121.702 140.584 121.136 140.438 120.685 140.437C120.462 140.437 120.191 140.471 119.965 140.626C119.703 140.805 119.586 141.085 119.586 141.384C119.586 142.312 120.029 144.016 121.192 145.58C122.371 147.165 124.298 148.618 127.26 148.992C128.714 149.176 129.938 148.966 130.645 148.15C131.358 147.327 131.369 146.092 130.907 144.662C130.124 142.239 127.841 138.802 123.855 134.456C126.439 136.103 129.181 138.254 131.063 140.601C132.385 142.251 133.246 143.953 133.374 145.61C133.499 147.239 132.924 148.896 131.222 150.503C130.154 151.512 129.108 152.05 128.116 152.252C127.126 152.454 126.154 152.328 125.22 151.953C123.335 151.195 121.621 149.427 120.355 147.376C119.09 145.325 118.328 143.082 118.273 141.462C118.245 140.645 118.4 140.072 118.665 139.742C118.9 139.45 119.291 139.262 120.003 139.381C122.385 139.778 123.494 140.552 124.011 141.149C124.094 141.246 124.163 141.339 124.221 141.427Z" fill="#A317B1" stroke="#A317B1"/>
<path d="M70.9851 116.782C70.9973 116.381 70.9691 115.986 70.7018 115.662C70.5966 115.535 70.443 115.478 70.3285 115.363C70.2216 115.256 70.2237 114.866 70.3443 114.781C70.5902 114.607 70.6304 114.494 70.9057 114.712C71.0122 114.796 71.0488 114.901 71.1016 115.022C71.2042 115.256 70.9942 115.314 70.8051 115.305C70.2914 115.28 70.002 114.898 69.6983 114.548C69.4781 114.294 69.4412 114.222 69.1263 114.209C68.7182 114.192 68.2516 113.997 67.895 113.801C67.7745 113.735 67.3788 113.612 67.5031 113.671C67.9278 113.872 68.4716 114.186 68.7821 114.542C68.8844 114.66 68.9445 114.8 68.986 114.945C68.9974 114.985 69.0758 114.991 69.1051 115.019C69.1854 115.095 69.2135 115.215 69.2428 115.316C69.4015 115.862 69.6094 116.367 69.9577 116.793C70.1618 117.042 70.4497 117.481 70.7389 117.606C70.8083 117.636 70.8666 117.632 70.9375 117.64C71.0161 117.649 71.0103 117.744 71.0646 117.783C71.2397 117.911 71.3844 118.076 71.4141 118.308C71.4447 118.546 71.6575 118.676 71.8669 118.543C72.1043 118.393 72.4627 118.227 72.4627 117.903C72.4627 117.417 72.558 116.943 72.558 116.454C72.558 116.311 72.6729 116.08 72.5951 115.946C72.5644 115.893 72.4235 115.856 72.3726 115.808C72.2341 115.677 72.1393 115.509 72.0178 115.363C71.8644 115.179 71.4601 114.781 71.8907 114.781C72.2473 114.781 72.3516 115.035 72.6295 115.204C72.84 115.332 72.8995 115.179 73.0823 115.162C73.2259 115.148 73.3455 115.175 73.4821 115.114C73.5805 115.071 73.5676 115.118 73.6542 115.21C73.8249 115.39 73.9879 115.259 73.9879 115.019" stroke="#A317B1" stroke-linecap="round" stroke-linejoin="round"/>
<path d="M254.821 98.4433C253.916 103.415 241.779 79.0785 227.921 80.0277C139.371 86.0926 139.914 28.8212 151.463 27.0063C159.102 25.8059 133.843 57.8011 227.921 57.8011C239.879 57.8011 261.497 61.7813 254.821 98.4433Z" fill="url(#paint0_linear)"/>
<path d="M254.821 98.4433C253.916 103.415 241.779 79.0785 227.921 80.0277C139.371 86.0926 139.914 28.8212 151.463 27.0063C159.102 25.8059 133.843 57.8011 227.921 57.8011C239.879 57.8011 261.497 61.7813 254.821 98.4433Z" fill="url(#paint1_linear)"/>
<path d="M246.41 92.0801C244.464 98.0126 240.444 100.2 226.896 102.716C117.761 95.2951 91.6284 16.0407 101.872 17.3445C115.526 19.0823 115.526 80.8966 223.55 68.917C242.517 66.8136 248.904 84.4811 246.41 92.0801Z" fill="url(#paint2_linear)"/>
<path d="M246.41 92.0801C244.464 98.0126 240.444 100.2 226.896 102.716C117.761 95.2951 91.6284 16.0407 101.872 17.3445C115.526 19.0823 115.526 80.8966 223.55 68.917C242.517 66.8136 248.904 84.4811 246.41 92.0801Z" fill="url(#paint3_linear)"/>
<path d="M249.932 83.9033C245.251 76.2659 242.915 105.282 232.517 103.777C214.181 99.1036 197.587 83.8649 191.399 52.4048C200.101 72.7506 218.812 66.258 228.855 66.258C244.65 66.258 253.171 89.1888 249.932 83.9033Z" fill="url(#paint4_linear)"/>
<path d="M257.047 91.7704C259.354 100.159 256.191 112.762 238.363 116.074C205.937 120.164 152.825 103.402 127.214 78.8906C151.501 92.656 153.465 77.2652 222.573 79.0555C248.587 79.7295 255.611 86.5501 257.047 91.7704Z" fill="url(#paint5_linear)"/>
<path d="M226.521 105.889C223.079 97.6187 216.28 125.923 206.24 122.827C188.848 115.372 170.927 81.044 169.683 49.0051C175.131 70.4528 183.003 56.6294 215.337 82.4229C227.509 92.1323 228.903 111.612 226.521 105.889Z" fill="url(#paint6_linear)"/>
<path d="M226.236 100.276C227.216 108.921 222.14 120.883 204.015 121.395C171.346 120.416 121.469 95.6339 99.9614 67.4538C121.825 84.8128 126.147 69.9115 194.145 82.3781C219.741 87.0708 225.625 94.8966 226.236 100.276Z" fill="url(#paint7_linear)"/>
<circle cx="245.5" cy="91.5" r="12.5" fill="#FA00FF"/>
<circle cx="246.578" cy="89.9641" r="9.72095" fill="white"/>
<path d="M253.407 90.3345C253.407 93.6478 252.416 96.3339 250.207 96.3339C247.998 96.3339 246.208 93.6478 246.208 90.3345C246.208 87.0211 247.998 84.335 250.207 84.335C252.416 84.335 253.407 87.0211 253.407 90.3345Z" fill="black"/>
<path d="M177.535 92.5624C178.327 102.091 175.864 114.693 165.85 113.613C147.746 109.59 119.433 78.017 106.718 45.2999C119.317 66.2329 121.278 50.3521 159.262 70.1156C173.56 77.5551 177.042 86.6328 177.535 92.5624Z" fill="url(#paint8_linear)"/>
<path d="M197.464 103.811C194.732 95.2797 185.567 122.909 175.824 118.975C159.125 110.078 144.167 74.3591 145.634 42.3297C149.251 64.1609 158.262 51.0518 188.302 79.4842C199.61 90.187 199.354 109.715 197.464 103.811Z" fill="url(#paint9_linear)"/>
<path d="M198.617 103.004C198.865 111.701 192.796 123.191 174.692 122.17C142.223 118.436 94.6174 89.5292 75.5669 59.6331C95.8861 78.7769 101.451 64.2939 168.153 82.4594C193.262 89.2975 198.464 97.5922 198.617 103.004Z" fill="url(#paint10_linear)"/>
<path d="M269.532 135.702C269.532 135.702 260.125 163.069 209.243 149.073C158.361 135.077 71.3063 113.503 74.085 90.6781C76.8637 67.853 166.05 76.6913 240.455 98.9271C288.292 118.677 269.532 135.702 269.532 135.702Z" fill="#D02A2A"/>
<path d="M225.693 95.238C225.693 104.599 231.639 117.112 217.395 117.112C203.15 117.112 173.003 94.5917 173.003 85.2307C173.003 75.8698 185.657 78.2884 199.901 78.2884C214.146 78.2884 225.693 85.877 225.693 95.238Z" fill="#D02A2A"/>
<path d="M233.838 113.483C233.838 123.212 239.392 125.595 233.838 125.595C228.284 125.595 214.233 109.9 214.233 100.17C214.233 100.17 212.511 86.6247 218.065 86.6247C223.619 86.6247 233.838 103.754 233.838 113.483Z" fill="black"/>
<path d="M252.168 114.295C252.168 124.882 238.709 123.407 231.394 123.407C224.08 123.407 218.15 114.825 218.15 104.238C218.15 93.6514 224.08 85.0691 231.394 85.0691C238.709 85.0691 252.168 103.708 252.168 114.295Z" fill="#D02A2A"/>
<path d="M252.168 120.683C252.168 131.215 241.949 129.748 236.395 129.748C230.841 129.748 226.338 121.21 226.338 110.678C226.338 100.146 230.841 91.6083 236.395 91.6083C241.949 91.6083 252.168 110.151 252.168 120.683Z" fill="black"/>
<path d="M255.397 127.209C248.705 133.795 231.906 133.235 228.358 129.63C224.81 126.025 230.545 106.757 237.236 100.17C243.928 93.5838 258.932 91.9557 262.48 95.5608C266.029 99.1659 262.088 120.622 255.397 127.209Z" fill="#D02A2A"/>
<path d="M207.094 122.042C205.902 128.585 189.932 96.5603 171.695 97.8093C55.1738 105.79 55.8878 30.4268 71.0853 28.0386C81.1375 26.459 47.8985 68.5614 171.695 68.5614C187.431 68.5614 215.879 73.799 207.094 122.042Z" fill="url(#paint11_linear)"/>
<path d="M207.094 122.042C205.902 128.585 189.932 96.5603 171.695 97.8093C55.1738 105.79 55.8878 30.4268 71.0853 28.0386C81.1375 26.459 47.8985 68.5614 171.695 68.5614C187.431 68.5614 215.879 73.799 207.094 122.042Z" fill="url(#paint12_linear)"/>
<path d="M196.026 113.669C193.465 121.476 188.175 124.354 170.348 127.665C26.736 117.9 -7.65121 13.609 5.82897 15.3247C23.7959 17.6114 23.7959 98.9527 165.944 83.1888C190.903 80.4209 199.307 103.67 196.026 113.669Z" fill="url(#paint13_linear)"/>
<path d="M196.026 113.669C193.465 121.476 188.175 124.354 170.348 127.665C26.736 117.9 -7.65121 13.609 5.82897 15.3247C23.7959 17.6114 23.7959 98.9527 165.944 83.1888C190.903 80.4209 199.307 103.67 196.026 113.669Z" fill="url(#paint14_linear)"/>
<path d="M190.547 104.456C193.581 113.523 194.184 126.35 184.2 127.681C165.659 128.076 130.653 104.138 110.526 75.3808C127.739 92.7193 125.869 76.8274 167.462 86.996C183.119 90.8238 188.658 98.8138 190.547 104.456Z" fill="url(#paint15_linear)"/>
<path d="M212.579 110.645C207.898 103.008 205.562 132.024 195.164 130.518C176.828 125.845 153.809 94.7059 147.62 63.2458C156.323 83.5916 161.96 68.7162 197.897 89.1935C211.425 96.9018 215.818 115.931 212.579 110.645Z" fill="url(#paint16_linear)"/>
<path d="M213.507 109.587C215.815 117.976 212.651 130.579 194.824 133.891C162.397 137.981 109.285 121.219 83.6744 96.7077C107.962 110.473 109.925 95.0823 179.033 96.8726C205.047 97.5465 212.072 104.367 213.507 109.587Z" fill="url(#paint17_linear)"/>
<path d="M174.988 118.218C170.128 126.904 165.753 127.865 152.116 127.865C152.116 127.865 165.629 125.244 168.478 117.4C171.327 109.556 168.25 107.044 184.355 103.446C172.499 108.554 179.015 111.02 174.988 118.218Z" fill="#46A22F"/>
<path d="M158.959 120.33C156.371 126.632 153.071 124.708 148.079 124.708C148.079 124.708 153.975 125.427 155.492 119.737C157.009 114.046 155.371 112.224 163.947 109.613C158.959 114.476 161.103 115.108 158.959 120.33Z" fill="#46A22F"/>
<path d="M129.78 118.773C121.861 119.987 113.232 116.689 112.755 111.5C112.755 111.5 115.669 115.946 123.997 115.18C132.325 114.413 133.786 114.279 138.849 118.879C138.849 118.879 136.341 117.768 129.78 118.773Z" fill="#FA3A3A"/>
<path d="M151.313 120.08C149.389 124.766 146.936 123.335 143.225 123.335C143.225 123.335 147.608 123.87 148.736 119.64C149.864 115.409 148.646 114.054 155.022 112.113C151.313 115.728 152.907 116.198 151.313 120.08Z" fill="#46A22F"/>
<path d="M144.258 120.232C141.718 124.112 139.759 122.401 136.423 121.759C136.423 121.759 140.271 122.999 142.017 119.39C143.763 115.781 142.902 114.352 148.971 113.71C145.011 116.319 146.363 117.017 144.258 120.232Z" fill="#46A22F"/>
<path d="M204.96 96.8175C188.314 88.4167 172.134 100.396 172.134 100.396C172.134 100.396 141.02 123.576 105.083 107.396C142.805 115.985 166.689 96.8175 166.689 96.8175C166.689 96.8175 189.247 83.1273 204.96 96.8175Z" fill="#FF9416"/>
<path d="M274.597 122.423C274.597 132.52 268.459 135.478 257.937 135.478C257.937 135.478 234.417 132.865 234.417 120.125C234.417 107.384 245.197 104.142 255.546 104.142C270.024 104.142 274.597 112.327 274.597 122.423Z" fill="#FFC793"/>
<path d="M297.536 95.7457C306.161 100.995 305.496 107.777 300.025 116.765C300.025 116.765 285.564 135.497 274.681 128.873C263.798 122.249 266.634 111.354 272.015 102.514C279.542 90.1471 288.912 90.4961 297.536 95.7457Z" fill="#FFC793"/>
<path d="M261.82 86.5661C271.256 82.9733 276.205 87.6575 279.949 97.4906C279.949 97.4906 288.134 127.194 276.228 131.728C264.322 136.261 255.197 120.547 251.515 110.876C246.363 97.3454 252.385 90.1588 261.82 86.5661Z" fill="#FFC793"/>
<path d="M253.615 116.923C257.04 118.123 257.565 118.307 262.798 124.328C254.714 125.683 254.426 125.582 251.002 124.382C247.577 123.182 246.993 121.103 247.714 119.043C248.436 116.983 250.191 115.723 253.615 116.923Z" fill="#513A20"/>
<path d="M297.47 107.952C295.986 110.441 295.759 110.823 289.531 113.554C289.072 106.605 289.197 106.396 290.68 103.906C292.163 101.417 294.19 101.472 296.065 102.589C297.94 103.707 298.953 105.462 297.47 107.952Z" fill="#513A20"/>
<path d="M279.907 126.366C275.999 143.906 276.234 143.508 265.428 150.007C257.121 152.151 229.012 154.007 216.645 142.691C237.164 142.457 249.23 129.976 257.537 127.832C265.843 125.689 267.478 125.267 279.907 126.366Z" fill="#E60BFD"/>
<path d="M276.791 131.6C279.777 123.668 279.761 123.87 277.57 119.533C275.175 117.395 269.742 114.756 260.409 112.916C269.812 121.657 262.813 121.643 269.271 127.647C271.665 129.785 272.136 130.206 276.791 131.6Z" fill="#E60BFD"/>
<path d="M282.124 124.218C294.378 132.751 294.026 132.638 303.328 130.606C318.709 124.288 324.195 112.833 323.862 99.0635C312.863 112.73 306.938 103.928 293.726 113.718C288.245 117.021 282.124 124.218 282.124 124.218Z" fill="#E60BFD"/>
<path d="M287.937 134.244C287.937 140.826 283.569 145.193 276.021 148.423C250.862 153.067 253.082 151.452 257.12 138.127C257.12 131.545 269.44 122.328 276.021 122.328C282.602 122.328 287.937 127.663 287.937 134.244Z" fill="#E60BFD"/>
<path d="M281.844 135.431C285.925 139.483 291.37 139.416 298.103 136.642C316.75 123.626 314.356 124.033 303.564 118.375C299.483 114.323 286.048 116.421 281.923 120.574C277.799 124.727 277.764 131.378 281.844 135.431Z" fill="#E60BFD"/>
<path d="M285.885 125.656C278.262 122.533 278.416 122.655 276.78 118.225C276.842 115.106 278.559 109.491 283.426 101.63C283.426 114.108 288.047 109.117 288.047 117.687C287.985 120.806 287.972 121.42 285.885 125.656Z" fill="#E60BFD"/>
<path d="M253.453 143.942C253.453 149.283 261.336 148.619 253.453 149.283C247.581 149.777 243.061 142.799 232.554 143.942C241.793 138.719 246.576 136.339 253.453 135.906C272.666 134.694 267.821 127.628 253.453 143.942Z" fill="#A317B1"/>
<path d="M270.129 121.589C268.799 122.641 270.517 124.475 268.799 122.641C267.519 121.276 268.366 118.775 266.012 116.383C269.133 117.655 270.668 118.378 272.131 120.006C276.218 124.554 277.024 121.955 270.129 121.589Z" fill="#A317B1"/>
<path d="M305.951 120.93C308.25 124.556 302.613 127.498 308.25 124.556C312.449 122.364 312.515 115.681 320.139 111.935C311.619 112.365 307.348 112.808 302.492 115.474C288.927 122.921 289.176 116.038 305.951 120.93Z" fill="#A317B1"/>
<path d="M281.974 116.613C283.859 116.911 283.186 119.655 283.859 116.911C284.36 114.866 282.15 112.882 283.138 109.239C280.78 112.208 279.674 113.763 279.139 116.166C277.642 122.878 275.418 120.775 281.974 116.613Z" fill="#A317B1"/>
<circle cx="196.115" cy="114.957" r="15.6265" fill="#FA00FF"/>
<circle cx="197.463" cy="113.037" r="12.1524" fill="white"/>
<path d="M206 113.5C206 117.642 204.761 121 202 121C199.239 121 197 117.642 197 113.5C197 109.358 199.239 106 202 106C204.761 106 206 109.358 206 113.5Z" fill="black"/>
<defs>
<linearGradient id="paint0_linear" x1="177.487" y1="15.2355" x2="195.139" y2="65.7778" gradientUnits="userSpaceOnUse">
<stop offset="0.241755" stop-color="#FF00F5"/>
<stop offset="1" stop-color="#DD0FFF"/>
</linearGradient>
<linearGradient id="paint1_linear" x1="177.487" y1="15.2355" x2="195.139" y2="65.7778" gradientUnits="userSpaceOnUse">
<stop offset="0.241755" stop-color="#FF00F5"/>
<stop offset="1" stop-color="#DD0FFF"/>
</linearGradient>
<linearGradient id="paint2_linear" x1="163.188" y1="-4.91191" x2="197.287" y2="84.4231" gradientUnits="userSpaceOnUse">
<stop offset="0.241755" stop-color="#FA00FF"/>
<stop offset="1" stop-color="#CF0FFF"/>
</linearGradient>
<linearGradient id="paint3_linear" x1="163.188" y1="-4.91191" x2="197.287" y2="84.4231" gradientUnits="userSpaceOnUse">
<stop offset="0.241755" stop-color="#FA00FF"/>
<stop offset="1" stop-color="#CF0FFF"/>
</linearGradient>
<linearGradient id="paint4_linear" x1="222.937" y1="38.2161" x2="219.748" y2="103.017" gradientUnits="userSpaceOnUse">
<stop stop-color="#FDE400"/>
<stop offset="0.567708" stop-color="#FFE920"/>
<stop offset="1" stop-color="#C9B500"/>
</linearGradient>
<linearGradient id="paint5_linear" x1="221.247" y1="64.1937" x2="204.886" y2="111.131" gradientUnits="userSpaceOnUse">
<stop stop-color="#FDE400"/>
<stop offset="0.562689" stop-color="#FFE920"/>
<stop offset="1" stop-color="#FFC01E"/>
</linearGradient>
<linearGradient id="paint6_linear" x1="203.79" y1="56.0824" x2="190.609" y2="119.608" gradientUnits="userSpaceOnUse">
<stop stop-color="#FDE400"/>
<stop offset="0.567708" stop-color="#FFE920"/>
<stop offset="1" stop-color="#C9B500"/>
</linearGradient>
<linearGradient id="paint7_linear" x1="195.136" y1="67.4902" x2="171.706" y2="111.329" gradientUnits="userSpaceOnUse">
<stop stop-color="#FDE400"/>
<stop offset="0.562689" stop-color="#FFE920"/>
<stop offset="1" stop-color="#FFC01E"/>
</linearGradient>
<linearGradient id="paint8_linear" x1="138.893" y1="45.424" x2="138.63" y2="113.569" gradientUnits="userSpaceOnUse">
<stop stop-color="#FDE400"/>
<stop offset="0.567708" stop-color="#FFE920"/>
<stop offset="1" stop-color="#C9B500"/>
</linearGradient>
<linearGradient id="paint9_linear" x1="179.021" y1="52.2626" x2="160.521" y2="114.448" gradientUnits="userSpaceOnUse">
<stop stop-color="#FDE400"/>
<stop offset="0.567708" stop-color="#FFE920"/>
<stop offset="1" stop-color="#C9B500"/>
</linearGradient>
<linearGradient id="paint10_linear" x1="170.399" y1="67.7085" x2="143.349" y2="109.412" gradientUnits="userSpaceOnUse">
<stop stop-color="#FDE400"/>
<stop offset="0.562689" stop-color="#FFE920"/>
<stop offset="1" stop-color="#FFC01E"/>
</linearGradient>
<linearGradient id="paint11_linear" x1="105.329" y1="12.5495" x2="128.558" y2="79.0578" gradientUnits="userSpaceOnUse">
<stop offset="0.241755" stop-color="#FF00F5"/>
<stop offset="1" stop-color="#DD0FFF"/>
</linearGradient>
<linearGradient id="paint12_linear" x1="105.329" y1="12.5495" x2="128.558" y2="79.0578" gradientUnits="userSpaceOnUse">
<stop offset="0.241755" stop-color="#FF00F5"/>
<stop offset="1" stop-color="#DD0FFF"/>
</linearGradient>
<linearGradient id="paint13_linear" x1="86.5144" y1="-13.9625" x2="131.385" y2="103.593" gradientUnits="userSpaceOnUse">
<stop offset="0.241755" stop-color="#FA00FF"/>
<stop offset="1" stop-color="#CF0FFF"/>
</linearGradient>
<linearGradient id="paint14_linear" x1="86.5144" y1="-13.9625" x2="131.385" y2="103.593" gradientUnits="userSpaceOnUse">
<stop offset="0.241755" stop-color="#FA00FF"/>
<stop offset="1" stop-color="#CF0FFF"/>
</linearGradient>
<linearGradient id="paint15_linear" x1="141.808" y1="67.8536" x2="157.75" y2="134.108" gradientUnits="userSpaceOnUse">
<stop stop-color="#FDE400"/>
<stop offset="0.567708" stop-color="#FFE920"/>
<stop offset="1" stop-color="#C9B500"/>
</linearGradient>
<linearGradient id="paint16_linear" x1="182.412" y1="64.958" x2="179.223" y2="129.759" gradientUnits="userSpaceOnUse">
<stop stop-color="#FDE400"/>
<stop offset="0.567708" stop-color="#FFE920"/>
<stop offset="1" stop-color="#C9B500"/>
</linearGradient>
<linearGradient id="paint17_linear" x1="177.708" y1="82.0108" x2="161.346" y2="128.948" gradientUnits="userSpaceOnUse">
<stop stop-color="#FDE400"/>
<stop offset="0.562689" stop-color="#FFE920"/>
<stop offset="1" stop-color="#FFC01E"/>
</linearGradient>
</defs>
</svg>
