<svg width="186" height="119" viewBox="0 0 186 119" fill="none" xmlns="http://www.w3.org/2000/svg">
<path d="M183.807 72.0886C183.233 95.7854 101.261 128.331 81.3398 112.847C36.5759 78.0536 1.16062 66.6035 1.73448 42.9068C2.30834 19.21 43.9422 0.996972 94.7263 2.2268C140.694 30.4524 183.807 72.0886 183.807 72.0886Z" fill="#FA3A3A"/>
<path d="M172.257 75.3387C157.911 84.6981 137.435 92.1442 114.249 102.172C87.0896 101.514 34.17 68.5644 34.6511 48.6972C35.1322 28.8299 57.539 13.2575 84.6979 13.9152C111.857 14.5729 172.738 55.4714 172.257 75.3387Z" fill="#D02A2A"/>
<path d="M134.546 67.0179C136.043 70.2657 132.093 79.924 127.39 81.0659C123.513 83.8788 112.162 81.2732 110.665 78.0254C110.665 78.0254 119.148 78.8158 125.09 76.0766C131.033 73.3374 134.546 67.0179 134.546 67.0179Z" fill="#5BC042"/>
<path d="M126.891 48.4388C128.946 53.7043 121.804 68.571 114.276 69.9296C107.894 74.0023 90.2294 68.8214 88.1735 63.5559C88.1735 63.5559 101.483 65.6025 111.118 61.8406C120.752 58.0787 126.891 48.4388 126.891 48.4388Z" fill="#46A22F"/>
<path d="M107.319 39.8294C108.574 43.1782 103.927 52.5209 99.1526 53.315C95.0798 55.836 83.9504 52.4052 82.6956 49.0564C82.6956 49.0564 91.0973 50.4666 97.2249 48.1705C103.352 45.8744 107.319 39.8294 107.319 39.8294Z" fill="#5BC042"/>
<path d="M66.3573 64.3535C66.3573 69.4718 62.2081 73.6211 57.0898 73.6211C49.3922 68.6229 50.6418 69.2476 47.8223 64.3535C47.8223 59.2352 51.9715 55.086 57.0898 55.086C62.2081 55.086 66.3573 59.2352 66.3573 64.3535Z" fill="white"/>
<path d="M112.61 75.8616C112.61 80.9799 115.525 103.56 104.709 103.56C99.5902 103.56 95.441 99.4109 95.441 94.2926C95.441 89.1743 99.5902 85.0251 104.709 85.0251C109.827 85.0251 112.61 70.7432 112.61 75.8616Z" fill="white"/>
<path d="M99.0204 92.1561C99.0204 97.2745 99.7236 99.0287 88.6987 99.0287C83.9088 96.3213 82.4509 96.3213 80.4853 92.1561C76.6197 86.5331 84.6345 82.8886 89.7528 82.8886C94.8712 82.8886 99.0204 87.0378 99.0204 92.1561Z" fill="white"/>
<path d="M81.4004 79.0193C81.4004 84.1376 76.7157 91.7414 72.1329 88.2868C65.6404 83.3927 64.4586 83.601 61.4753 79.0193C62.7925 71.522 67.0145 69.7518 72.1329 69.7518C77.2512 69.7518 81.4004 73.901 81.4004 79.0193Z" fill="white"/>
<path d="M119.82 90.6874C122.497 92.5875 123.126 96.2973 121.226 98.9736C115.755 101.143 116.545 100.722 112.94 100.379C110.264 98.4789 109.634 94.7691 111.534 92.0929C113.434 89.4166 117.144 88.7874 119.82 90.6874Z" fill="white"/>
<path d="M146.483 83.9298C149.159 85.8298 150.338 86.1133 146.245 91.878C143.051 93.3775 142.51 94.1398 139.602 93.6213C135.227 93.5552 136.297 88.0114 138.197 85.3352C140.097 82.659 143.807 82.0297 146.483 83.9298Z" fill="white"/>
<path d="M157.703 77.0661C160.379 78.9662 161.557 79.2497 157.464 85.0143C154.271 86.5138 153.729 87.2761 150.822 86.7577C146.447 86.6915 147.516 81.1478 149.416 78.4716C151.317 75.7953 155.026 75.1661 157.703 77.0661Z" fill="white"/>
<path d="M133.073 88.2661C135.749 90.1661 137.986 95.4384 134.479 96.5522C129.509 98.1301 129.18 98.8254 125.676 98.6845C122.245 95.2125 122.887 92.3478 124.787 89.6715C126.687 86.9953 130.397 86.366 133.073 88.2661Z" fill="white"/>
<path d="M131.835 48.907C136.043 48.3137 138.973 44.4212 138.38 40.213C133.378 34.4635 134.037 35.4184 129.686 33.6676C125.478 34.2609 122.547 38.1534 123.141 42.3617C123.734 46.5699 127.626 49.5004 131.835 48.907Z" fill="white"/>
<path d="M169.605 58.1387C168.99 62.7037 168.875 83.1935 159.227 81.8926C154.662 81.2771 151.461 77.0774 152.076 72.5124C152.692 67.9474 156.892 64.7457 161.457 65.3613C166.022 65.9769 170.221 53.5737 169.605 58.1387Z" fill="white"/>
<path d="M158.48 72.5393C162.688 71.946 164.212 72.3208 162.934 63.2562C160.153 59.6318 159.984 58.4332 156.331 57.2999C151.26 54.7734 149.193 61.7857 149.786 65.994C150.379 70.2022 154.272 73.1327 158.48 72.5393Z" fill="white"/>
<path d="M145.637 59.5752C149.845 58.9819 155.554 54.2486 152.182 50.8811C147.405 46.1104 147.44 45.1146 143.327 43.1928C137.315 45.1451 136.349 48.8216 136.943 53.0298C137.536 57.2381 141.428 60.1685 145.637 59.5752Z" fill="white"/>
</svg>
